# xmcd
# 
# Track frame offsets:
#     150
#     18175
#     35227
#     51435
#     67865
#     86637
#     104397
#     119120
#     132555
#     146330
#     160000
#     177592
#     189030
#     204107
# 
# Disc length: 3149
# 
# Revision: 6
# Processed by: cddbd v1.5.2PL0 Copyright (c) Steve Scherf et al.
# Submitted via: fre:ac v1.0.27
# 
DISCID=c20c4b0e
DTITLE=Carpenters - Yesterday Once More [Disc One]
DYEAR=1998
DGENRE=Pop
TTITLE0=Yesterday Once More
TTITLE1=Superstar
TTITLE2=Rainy Days And Mondays
TTITLE3=(Want You) Back In My Life Again
TTITLE4=Ticket To Ride
TTITLE5=Goodbye To Love
TTITLE6=Bless The Beasts And Children
TTITLE7=It's Going To Take Some Time
TTITLE8=There's A Kind Of Hush
TTITLE9=Sweet, Sweet Smile
TTITLE10=I Won't Last A Day Without You
TTITLE11=For All We Know
TTITLE12=Touch Me When We're Dancing
TTITLE13=Calling Occupants Of Interplanetary Craft
EXTD=Greatest Hits - 1969-1983\nYEAR: 1998  ID3G:  17
EXTT0=
EXTT1=
EXTT2=
EXTT3=
EXTT4=
EXTT5=
EXTT6=a Stanley Kramer Production)
EXTT7=
EXTT8=
EXTT9=
EXTT10=
EXTT11=
EXTT12=
EXTT13=The Recognized Anthem of World Contact Day
PLAYORDER=
